<svg width="12" height="12" viewBox="0 0 12 12" fill="none" xmlns="http://www.w3.org/2000/svg">
<path d="M3.5 5.5H4.5L4.5 6.5H3.5L3.5 5.5ZM10.5 3L10.5 10C10.5 10.55 10.05 11 9.5 11L2.5 11C2.23478 11 1.98043 10.8946 1.79289 10.7071C1.60536 10.5196 1.5 10.2652 1.5 10L1.505 3C1.505 2.45 1.945 2 2.5 2L3 2V1L4 1L4 2L8 2V1L9 1V2H9.5C10.05 2 10.5 2.45 10.5 3ZM2.5 4L9.5 4V3L2.5 3L2.5 4ZM9.5 10L9.5 5L2.5 5L2.5 10L9.5 10ZM7.5 6.5H8.5L8.5 5.5H7.5L7.5 6.5ZM5.5 6.5H6.5L6.5 5.5H5.5L5.5 6.5Z" fill="#171A1F"/>
</svg>
