<svg width="32" height="32" viewBox="0 0 32 32" fill="none" xmlns="http://www.w3.org/2000/svg">
<g clip-path="url(#clip0_37_76)">
<path d="M16.0001 2.66663C8.64008 2.66663 2.66675 8.63996 2.66675 16C2.66675 23.36 8.64008 29.3333 16.0001 29.3333C23.3601 29.3333 29.3334 23.36 29.3334 16C29.3334 8.63996 23.3601 2.66663 16.0001 2.66663ZM16.0001 26.6666C10.1201 26.6666 5.33341 21.88 5.33341 16C5.33341 10.12 10.1201 5.33329 16.0001 5.33329C21.8801 5.33329 26.6667 10.12 26.6667 16C26.6667 21.88 21.8801 26.6666 16.0001 26.6666ZM12.6667 22L22.0001 16L12.6667 9.99996L12.6667 22Z" fill="#171A1F"/>
</g>
<defs>
<clipPath id="clip0_37_76">
<rect width="32" height="32" fill="white"/>
</clipPath>
</defs>
</svg>
