<svg width="32" height="32" viewBox="0 0 32 32" fill="none" xmlns="http://www.w3.org/2000/svg">
<g clip-path="url(#clip0_37_71)">
<path d="M27.3333 5.33333C23.8533 6.26667 19.7733 6.66667 16 6.66667C12.2267 6.66667 8.14667 6.26667 4.66667 5.33333L4 8C6.48 8.66667 9.33333 9.10667 12 9.33333L12 25.3333H14.6667L14.6667 17.3333H17.3333L17.3333 25.3333H20L20 9.33333C22.6667 9.10667 25.52 8.66667 28 8L27.3333 5.33333ZM16 5.33333C17.4667 5.33333 18.6667 4.13333 18.6667 2.66667C18.6667 1.2 17.4667 0 16 0C14.5333 0 13.3333 1.2 13.3333 2.66667C13.3333 4.13333 14.5333 5.33333 16 5.33333ZM9.33333 32H12V29.3333L9.33333 29.3333V32ZM14.6667 32H17.3333V29.3333H14.6667V32ZM20 32H22.6667V29.3333H20V32Z" fill="#171A1F"/>
</g>
<defs>
<clipPath id="clip0_37_71">
<rect width="32" height="32" fill="white"/>
</clipPath>
</defs>
</svg>
