<svg width="28" height="28" viewBox="0 0 28 28" fill="none" xmlns="http://www.w3.org/2000/svg">
<path d="M18.1416 15.1666C19.565 15.1666 20.1716 13.9883 20.1833 13.965L24.325 6.45165C24.5933 5.92665 24.535 5.47165 24.3133 5.15665C24.1033 4.85331 23.7183 4.66665 23.3333 4.66665L6.07829 4.66665L5.29663 2.99831C5.20286 2.79917 5.05431 2.63086 4.86835 2.51309C4.6824 2.39532 4.46674 2.33296 4.24663 2.33331L2.33329 2.33331C1.69163 2.33331 1.16663 2.85831 1.16663 3.49998C1.16663 4.14165 1.69163 4.66665 2.33329 4.66665H3.49996L7.69996 13.5216L6.12496 16.3683C5.27329 17.9316 6.39329 19.8333 8.16663 19.8333L21 19.8333C21.6416 19.8333 22.1666 19.3083 22.1666 18.6666C22.1666 18.025 21.6416 17.5 21 17.5L8.16663 17.5L9.44996 15.1666L18.1416 15.1666Z" fill="#171A1F"/>
<path d="M8.16671 25.6667C9.45537 25.6667 10.5 24.622 10.5 23.3333C10.5 22.0447 9.45537 21 8.16671 21C6.87804 21 5.83337 22.0447 5.83337 23.3333C5.83337 24.622 6.87804 25.6667 8.16671 25.6667Z" fill="#171A1F"/>
<path d="M19.8333 25.6667C21.122 25.6667 22.1667 24.622 22.1667 23.3333C22.1667 22.0447 21.122 21 19.8333 21C18.5447 21 17.5 22.0447 17.5 23.3333C17.5 24.622 18.5447 25.6667 19.8333 25.6667Z" fill="#171A1F"/>
</svg>
